<?xml version="1.0" encoding="UTF-8" standalone="no"?>
<svg
   xmlns:dc="http://purl.org/dc/elements/1.1/"
   xmlns:cc="http://creativecommons.org/ns#"
   xmlns:rdf="http://www.w3.org/1999/02/22-rdf-syntax-ns#"
   xmlns:svg="http://www.w3.org/2000/svg"
   xmlns="http://www.w3.org/2000/svg"
   xmlns:sodipodi="http://sodipodi.sourceforge.net/DTD/sodipodi-0.dtd"
   xmlns:inkscape="http://www.inkscape.org/namespaces/inkscape"
   version="1.1"
   x="0px"
   y="0px"
   viewBox="0 0 100 125"
   enable-background="new 0 0 100 100"
   xml:space="preserve"
   id="svg3614"
   inkscape:version="0.91 r13725"
   sodipodi:docname="noun_43799.svg"><metadata
     id="metadata3634"><rdf:RDF><cc:Work
         rdf:about=""><dc:format>image/svg+xml</dc:format><dc:type
           rdf:resource="http://purl.org/dc/dcmitype/StillImage" /><dc:title></dc:title></cc:Work></rdf:RDF></metadata><defs
     id="defs3632" /><sodipodi:namedview
     pagecolor="#ffffff"
     bordercolor="#666666"
     borderopacity="1"
     objecttolerance="10"
     gridtolerance="10"
     guidetolerance="10"
     inkscape:pageopacity="0"
     inkscape:pageshadow="2"
     inkscape:window-width="1366"
     inkscape:window-height="704"
     id="namedview3630"
     showgrid="false"
     inkscape:zoom="1.888"
     inkscape:cx="-40.373004"
     inkscape:cy="67.560448"
     inkscape:window-x="0"
     inkscape:window-y="27"
     inkscape:window-maximized="1"
     inkscape:current-layer="svg3614" /><g
     id="g3616"
     transform="translate(0,12)"
     style="fill:#ffffff"><g
       id="g3618"
       style="fill:#ffffff"><path
         d="M 81.53,18.79 C 64.01,1.28 35.63,1.27 18.11,18.79 0.59,36.31 0.6,64.7 18.11,82.21 c 17.52,17.52 45.9,17.51 63.42,0 17.52,-17.51 17.52,-45.9 0,-63.42 z m 1.41,25.89 c 1.65,2.23 2.63,4.99 2.63,7.98 0,3.91 -1.67,7.43 -4.35,9.88 -2.39,2.21 -5.58,3.55 -9.09,3.55 -7.43,0 -13.44,-6.01 -13.44,-13.43 0,-7.43 6.01,-13.44 13.44,-13.44 4.43,0 8.37,2.14 10.81,5.46 z m -69.29,7.98 c 0,-3.31 1.19,-6.34 3.17,-8.68 2.47,-2.91 6.15,-4.76 10.27,-4.76 7.43,0 13.44,6.01 13.44,13.44 0,7.42 -6.01,13.43 -13.44,13.43 -3.2,0 -6.13,-1.11 -8.44,-2.98 -3.05,-2.46 -5,-6.23 -5,-10.45 z M 52.4,84.03 C 40.77,84.93 30.07,79.8 23.38,71.27 c 1.2,0.24 2.44,0.37 3.71,0.37 10.47,0 18.98,-8.52 18.98,-18.98 0,-10.47 -8.51,-18.99 -18.98,-18.99 -2.53,0 -4.94,0.5 -7.15,1.41 5.16,-10 15.24,-17.18 27.3,-18.11 14,-1.08 26.64,6.56 32.6,18.35 -2.36,-1.06 -4.97,-1.65 -7.71,-1.65 -10.47,0 -18.98,8.52 -18.98,18.99 0,10.46 8.51,18.98 18.98,18.98 1.45,0 2.87,-0.16 4.23,-0.48 -5.62,7.21 -14.14,12.12 -23.96,12.87 z"
         id="path3620"
         inkscape:connector-curvature="0"
         style="clip-rule:evenodd;fill-rule:evenodd;fill:#ffffff" /></g><g
       id="g3622"
       style="fill:#ffffff"><path
         d="m 50.187,76.243 c -2.735,0 -5.468,-0.721 -7.453,-2.162 -1.239,-0.9 -1.514,-2.632 -0.615,-3.872 0.899,-1.235 2.633,-1.512 3.871,-0.614 2.04,1.482 6.354,1.482 8.394,0 1.238,-0.9 2.973,-0.623 3.871,0.614 0.899,1.24 0.624,2.972 -0.615,3.872 -1.984,1.441 -4.719,2.162 -7.453,2.162 z"
         id="path3624"
         inkscape:connector-curvature="0"
         style="fill:#ffffff" /></g></g></svg>